<svg xmlns="http://www.w3.org/2000/svg" xmlns:xlink="http://www.w3.org/1999/xlink" width="40" zoomAndPan="magnify" viewBox="0 0 30 30.000001" height="40" preserveAspectRatio="xMidYMid meet" version="1.0"><defs><g/><clipPath id="1fa74974b8"><path d="M 7 6 L 23.65625 6 L 23.65625 14 L 7 14 Z M 7 6 " clip-rule="nonzero"/></clipPath><clipPath id="7e415f00a1"><path d="M 12 5.863281 L 13 5.863281 L 13 7 L 12 7 Z M 12 5.863281 " clip-rule="nonzero"/></clipPath><clipPath id="c7c71498f4"><path d="M 6.238281 10 L 8 10 L 8 11 L 6.238281 11 Z M 6.238281 10 " clip-rule="nonzero"/></clipPath><clipPath id="fb38eaf094"><path d="M 23 12 L 23.65625 12 L 23.65625 13 L 23 13 Z M 23 12 " clip-rule="nonzero"/></clipPath><clipPath id="eb187e956c"><path d="M 6.238281 18 L 7 18 L 7 19 L 6.238281 19 Z M 6.238281 18 " clip-rule="nonzero"/></clipPath><clipPath id="23be498b92"><path d="M 18 22 L 19 22 L 19 23.28125 L 18 23.28125 Z M 18 22 " clip-rule="nonzero"/></clipPath><clipPath id="d6892f98c9"><path d="M 23 17 L 23.65625 17 L 23.65625 18 L 23 18 Z M 23 17 " clip-rule="nonzero"/></clipPath><clipPath id="5eafdc369c"><path d="M 23 18 L 23.65625 18 L 23.65625 19 L 23 19 Z M 23 18 " clip-rule="nonzero"/></clipPath><clipPath id="f829b9ebfa"><path d="M 6.238281 16 L 7 16 L 7 17 L 6.238281 17 Z M 6.238281 16 " clip-rule="nonzero"/></clipPath><clipPath id="9cabe2d8af"><path d="M 13 23 L 14 23 L 14 23.28125 L 13 23.28125 Z M 13 23 " clip-rule="nonzero"/></clipPath></defs><path fill="#bd6513" d="M 15.660156 22.746094 C 14.125 22.746094 12.71875 22.324219 11.433594 21.480469 C 9.785156 20.398438 8.671875 18.769531 8.296875 16.894531 L 8.429688 16.867188 C 9.1875 20.667969 13.03125 23.191406 17 22.492188 C 19.832031 21.996094 22.09375 19.941406 22.757812 17.257812 L 22.886719 17.289062 C 22.558594 18.613281 21.847656 19.808594 20.824219 20.753906 C 19.777344 21.726562 18.464844 22.371094 17.019531 22.625 C 16.570312 22.703125 16.117188 22.742188 15.660156 22.746094 Z M 15.660156 22.746094 " fill-opacity="1" fill-rule="nonzero"/><path fill="#bd6513" d="M 22.59375 12.039062 C 21.554688 8.777344 18.160156 6.683594 14.519531 7.0625 C 12.117188 7.3125 9.96875 8.636719 8.78125 10.601562 L 8.664062 10.53125 C 9.25 9.5625 10.082031 8.722656 11.070312 8.105469 C 12.089844 7.464844 13.277344 7.058594 14.507812 6.929688 C 16.308594 6.742188 18.128906 7.15625 19.628906 8.09375 C 21.117188 9.023438 22.214844 10.40625 22.722656 11.996094 Z M 22.59375 12.039062 " fill-opacity="1" fill-rule="nonzero"/><path fill="#bd6513" d="M 14.558594 22.632812 C 13 22.632812 11.566406 22.214844 10.253906 21.371094 C 8.566406 20.285156 7.429688 18.648438 7.050781 16.757812 L 7.132812 16.742188 C 7.898438 20.597656 11.863281 23.148438 15.972656 22.425781 C 18.796875 21.929688 21.050781 20.011719 21.851562 17.417969 L 21.929688 17.441406 C 21.539062 18.699219 20.789062 19.835938 19.765625 20.726562 C 18.710938 21.640625 17.402344 22.257812 15.984375 22.507812 C 15.515625 22.589844 15.039062 22.632812 14.558594 22.632812 Z M 14.558594 22.632812 " fill-opacity="1" fill-rule="nonzero"/><path fill="#bd6513" d="M 21.90625 13.195312 C 21.445312 9.328125 17.691406 6.539062 13.539062 6.96875 C 10.988281 7.234375 8.773438 8.667969 7.613281 10.804688 L 7.542969 10.769531 C 8.714844 8.609375 10.953125 7.15625 13.53125 6.890625 C 15.5625 6.679688 17.5625 7.21875 19.15625 8.40625 C 20.753906 9.59375 21.761719 11.292969 21.988281 13.183594 Z M 21.90625 13.195312 " fill-opacity="1" fill-rule="nonzero"/><path fill="#bd6513" d="M 15.027344 22.523438 C 14.628906 22.523438 14.234375 22.492188 13.839844 22.433594 C 13.003906 22.308594 12.210938 22.058594 11.453125 21.683594 C 9.957031 20.9375 8.75 19.730469 8.058594 18.285156 L 8.128906 18.25 C 9.566406 21.253906 12.980469 22.925781 16.429688 22.320312 C 18.796875 21.902344 20.832031 20.433594 21.871094 18.390625 L 21.945312 18.429688 C 21.414062 19.457031 20.679688 20.316406 19.746094 21 C 18.789062 21.703125 17.648438 22.1875 16.445312 22.398438 C 15.976562 22.480469 15.503906 22.523438 15.027344 22.523438 Z M 15.027344 22.523438 " fill-opacity="1" fill-rule="nonzero"/><g clip-path="url(#1fa74974b8)"><path fill="#bd6513" d="M 22.964844 13.023438 C 22.957031 12.917969 22.945312 12.804688 22.933594 12.699219 C 22.46875 8.832031 18.714844 6.042969 14.5625 6.472656 C 11.375 6.804688 8.746094 8.980469 8.023438 11.886719 L 7.945312 11.867188 C 8.300781 10.445312 9.105469 9.171875 10.277344 8.1875 C 11.46875 7.179688 12.949219 6.558594 14.554688 6.394531 C 16.585938 6.183594 18.585938 6.71875 20.183594 7.910156 C 21.78125 9.097656 22.785156 10.792969 23.011719 12.6875 C 23.023438 12.796875 23.035156 12.910156 23.042969 13.019531 Z M 22.964844 13.023438 " fill-opacity="1" fill-rule="nonzero"/></g><path fill="#bd6513" d="M 22.148438 12.675781 C 22.148438 12.824219 22.070312 12.894531 21.914062 12.894531 C 21.757812 12.894531 21.679688 12.824219 21.679688 12.675781 C 21.679688 12.53125 21.757812 12.457031 21.914062 12.457031 C 22.070312 12.457031 22.148438 12.53125 22.148438 12.675781 Z M 22.148438 12.675781 " fill-opacity="1" fill-rule="nonzero"/><path fill="#bd6513" d="M 20.484375 8.578125 C 20.484375 8.722656 20.402344 8.796875 20.246094 8.796875 C 20.089844 8.796875 20.011719 8.722656 20.011719 8.578125 C 20.011719 8.433594 20.089844 8.359375 20.246094 8.359375 C 20.402344 8.359375 20.484375 8.433594 20.484375 8.578125 Z M 20.484375 8.578125 " fill-opacity="1" fill-rule="nonzero"/><path fill="#bd6513" d="M 15.683594 6.917969 C 15.683594 7.066406 15.605469 7.136719 15.449219 7.136719 C 15.292969 7.136719 15.214844 7.066406 15.214844 6.917969 C 15.214844 6.773438 15.292969 6.699219 15.449219 6.699219 C 15.605469 6.699219 15.683594 6.773438 15.683594 6.917969 Z M 15.683594 6.917969 " fill-opacity="1" fill-rule="nonzero"/><path fill="#bd6513" d="M 9.65625 8.609375 C 9.65625 8.753906 9.578125 8.828125 9.421875 8.828125 C 9.265625 8.828125 9.1875 8.753906 9.1875 8.609375 C 9.1875 8.464844 9.265625 8.390625 9.421875 8.390625 C 9.578125 8.390625 9.65625 8.464844 9.65625 8.609375 Z M 9.65625 8.609375 " fill-opacity="1" fill-rule="nonzero"/><g clip-path="url(#7e415f00a1)"><path fill="#bd6513" d="M 12.84375 6.082031 C 12.84375 6.226562 12.765625 6.300781 12.609375 6.300781 C 12.453125 6.300781 12.375 6.226562 12.375 6.082031 C 12.375 5.9375 12.453125 5.863281 12.609375 5.863281 C 12.765625 5.863281 12.84375 5.9375 12.84375 6.082031 Z M 12.84375 6.082031 " fill-opacity="1" fill-rule="nonzero"/></g><path fill="#bd6513" d="M 7.414062 11.429688 C 7.414062 11.519531 7.367188 11.5625 7.269531 11.5625 C 7.175781 11.5625 7.128906 11.519531 7.128906 11.429688 C 7.128906 11.34375 7.175781 11.300781 7.269531 11.300781 C 7.367188 11.300781 7.414062 11.34375 7.414062 11.429688 Z M 7.414062 11.429688 " fill-opacity="1" fill-rule="nonzero"/><g clip-path="url(#c7c71498f4)"><path fill="#bd6513" d="M 7.167969 10.417969 C 7.167969 10.480469 7.132812 10.511719 7.066406 10.511719 C 7 10.511719 6.96875 10.480469 6.96875 10.417969 C 6.96875 10.355469 7 10.324219 7.066406 10.324219 C 7.132812 10.324219 7.167969 10.355469 7.167969 10.417969 Z M 7.167969 10.417969 " fill-opacity="1" fill-rule="nonzero"/></g><path fill="#bd6513" d="M 7.988281 8.601562 C 7.988281 8.628906 7.972656 8.644531 7.941406 8.644531 C 7.910156 8.644531 7.894531 8.628906 7.894531 8.601562 C 7.894531 8.574219 7.910156 8.558594 7.941406 8.558594 C 7.972656 8.558594 7.988281 8.574219 7.988281 8.601562 Z M 7.988281 8.601562 " fill-opacity="1" fill-rule="nonzero"/><path fill="#bd6513" d="M 10.859375 6.503906 C 10.859375 6.566406 10.824219 6.59375 10.761719 6.59375 C 10.695312 6.59375 10.664062 6.566406 10.664062 6.503906 C 10.664062 6.445312 10.695312 6.414062 10.761719 6.414062 C 10.824219 6.414062 10.859375 6.445312 10.859375 6.503906 Z M 10.859375 6.503906 " fill-opacity="1" fill-rule="nonzero"/><path fill="#bd6513" d="M 20.042969 6.914062 C 20.042969 7 20 7.042969 19.90625 7.042969 C 19.816406 7.042969 19.769531 7 19.769531 6.914062 C 19.769531 6.832031 19.816406 6.789062 19.90625 6.789062 C 20 6.789062 20.042969 6.832031 20.042969 6.914062 Z M 20.042969 6.914062 " fill-opacity="1" fill-rule="nonzero"/><path fill="#bd6513" d="M 12.996094 8.289062 C 12.996094 8.386719 12.945312 8.4375 12.835938 8.4375 C 12.726562 8.4375 12.671875 8.386719 12.671875 8.289062 C 12.671875 8.1875 12.726562 8.136719 12.835938 8.136719 C 12.945312 8.136719 12.996094 8.1875 12.996094 8.289062 Z M 12.996094 8.289062 " fill-opacity="1" fill-rule="nonzero"/><path fill="#bd6513" d="M 22.597656 9.128906 C 22.597656 9.234375 22.542969 9.285156 22.433594 9.285156 C 22.320312 9.285156 22.265625 9.234375 22.265625 9.128906 C 22.265625 9.027344 22.320312 8.976562 22.433594 8.976562 C 22.542969 8.976562 22.597656 9.027344 22.597656 9.128906 Z M 22.597656 9.128906 " fill-opacity="1" fill-rule="nonzero"/><g clip-path="url(#fb38eaf094)"><path fill="#bd6513" d="M 23.503906 12.070312 C 23.503906 12.113281 23.480469 12.136719 23.4375 12.136719 C 23.390625 12.136719 23.367188 12.113281 23.367188 12.070312 C 23.367188 12.027344 23.390625 12.007812 23.4375 12.007812 C 23.480469 12.007812 23.503906 12.027344 23.503906 12.070312 Z M 23.503906 12.070312 " fill-opacity="1" fill-rule="nonzero"/></g><path fill="#bd6513" d="M 17.515625 8.785156 C 17.515625 8.851562 17.480469 8.886719 17.40625 8.886719 C 17.335938 8.886719 17.296875 8.851562 17.296875 8.785156 C 17.296875 8.714844 17.335938 8.683594 17.40625 8.683594 C 17.480469 8.683594 17.515625 8.714844 17.515625 8.785156 Z M 17.515625 8.785156 " fill-opacity="1" fill-rule="nonzero"/><path fill="#bd6513" d="M 17.199219 6.289062 C 17.199219 6.355469 17.160156 6.390625 17.089844 6.390625 C 17.015625 6.390625 16.980469 6.355469 16.980469 6.289062 C 16.980469 6.21875 17.015625 6.1875 17.089844 6.1875 C 17.160156 6.1875 17.199219 6.21875 17.199219 6.289062 Z M 17.199219 6.289062 " fill-opacity="1" fill-rule="nonzero"/><g clip-path="url(#eb187e956c)"><path fill="#bd6513" d="M 6.710938 18.234375 C 6.710938 18.382812 6.632812 18.457031 6.476562 18.457031 C 6.320312 18.457031 6.242188 18.382812 6.242188 18.234375 C 6.242188 18.089844 6.320312 18.015625 6.476562 18.015625 C 6.632812 18.015625 6.710938 18.089844 6.710938 18.234375 Z M 6.710938 18.234375 " fill-opacity="1" fill-rule="nonzero"/></g><path fill="#bd6513" d="M 10.789062 21.09375 C 10.789062 21.242188 10.710938 21.316406 10.554688 21.316406 C 10.398438 21.316406 10.320312 21.242188 10.320312 21.09375 C 10.320312 20.945312 10.398438 20.871094 10.554688 20.871094 C 10.710938 20.871094 10.789062 20.945312 10.789062 21.09375 Z M 10.789062 21.09375 " fill-opacity="1" fill-rule="nonzero"/><path fill="#bd6513" d="M 15.234375 21.988281 C 15.234375 22.136719 15.15625 22.210938 15 22.210938 C 14.84375 22.210938 14.765625 22.136719 14.765625 21.988281 C 14.765625 21.839844 14.84375 21.769531 15 21.769531 C 15.15625 21.769531 15.234375 21.839844 15.234375 21.988281 Z M 15.234375 21.988281 " fill-opacity="1" fill-rule="nonzero"/><path fill="#bd6513" d="M 21.585938 20.175781 C 21.585938 20.320312 21.503906 20.394531 21.347656 20.394531 C 21.191406 20.394531 21.113281 20.320312 21.113281 20.175781 C 21.113281 20.027344 21.191406 19.953125 21.347656 19.953125 C 21.503906 19.953125 21.585938 20.027344 21.585938 20.175781 Z M 21.585938 20.175781 " fill-opacity="1" fill-rule="nonzero"/><g clip-path="url(#23be498b92)"><path fill="#bd6513" d="M 18.605469 22.855469 C 18.605469 23.003906 18.527344 23.078125 18.371094 23.078125 C 18.210938 23.078125 18.132812 23.003906 18.132812 22.855469 C 18.132812 22.707031 18.210938 22.632812 18.371094 22.632812 C 18.527344 22.632812 18.605469 22.707031 18.605469 22.855469 Z M 18.605469 22.855469 " fill-opacity="1" fill-rule="nonzero"/></g><g clip-path="url(#d6892f98c9)"><path fill="#bd6513" d="M 23.652344 17.191406 C 23.652344 17.277344 23.605469 17.324219 23.511719 17.324219 C 23.417969 17.324219 23.371094 17.277344 23.371094 17.191406 C 23.371094 17.101562 23.417969 17.054688 23.511719 17.054688 C 23.605469 17.054688 23.652344 17.101562 23.652344 17.191406 Z M 23.652344 17.191406 " fill-opacity="1" fill-rule="nonzero"/></g><g clip-path="url(#5eafdc369c)"><path fill="#bd6513" d="M 23.410156 18.714844 C 23.410156 18.777344 23.378906 18.808594 23.3125 18.808594 C 23.246094 18.808594 23.210938 18.777344 23.210938 18.714844 C 23.210938 18.652344 23.246094 18.621094 23.3125 18.621094 C 23.378906 18.621094 23.410156 18.652344 23.410156 18.714844 Z M 23.410156 18.714844 " fill-opacity="1" fill-rule="nonzero"/></g><path fill="#bd6513" d="M 22.871094 20.21875 C 22.871094 20.246094 22.855469 20.261719 22.824219 20.261719 C 22.792969 20.261719 22.78125 20.246094 22.78125 20.21875 C 22.78125 20.1875 22.792969 20.175781 22.824219 20.175781 C 22.855469 20.175781 22.871094 20.1875 22.871094 20.21875 Z M 22.871094 20.21875 " fill-opacity="1" fill-rule="nonzero"/><path fill="#bd6513" d="M 20.277344 22.523438 C 20.277344 22.582031 20.242188 22.613281 20.179688 22.613281 C 20.113281 22.613281 20.082031 22.582031 20.082031 22.523438 C 20.082031 22.460938 20.113281 22.429688 20.179688 22.429688 C 20.242188 22.429688 20.277344 22.460938 20.277344 22.523438 Z M 20.277344 22.523438 " fill-opacity="1" fill-rule="nonzero"/><path fill="#bd6513" d="M 11.164062 22.742188 C 11.164062 22.828125 11.117188 22.871094 11.027344 22.871094 C 10.933594 22.871094 10.886719 22.828125 10.886719 22.742188 C 10.886719 22.65625 10.933594 22.613281 11.027344 22.613281 C 11.117188 22.613281 11.164062 22.65625 11.164062 22.742188 Z M 11.164062 22.742188 " fill-opacity="1" fill-rule="nonzero"/><path fill="#bd6513" d="M 18.132812 20.871094 C 18.132812 20.976562 18.078125 21.027344 17.972656 21.027344 C 17.863281 21.027344 17.808594 20.976562 17.808594 20.871094 C 17.808594 20.769531 17.863281 20.71875 17.972656 20.71875 C 18.078125 20.71875 18.132812 20.769531 18.132812 20.871094 Z M 18.132812 20.871094 " fill-opacity="1" fill-rule="nonzero"/><path fill="#bd6513" d="M 8.5 20.6875 C 8.5 20.792969 8.441406 20.84375 8.332031 20.84375 C 8.222656 20.84375 8.164062 20.792969 8.164062 20.6875 C 8.164062 20.585938 8.222656 20.53125 8.332031 20.53125 C 8.441406 20.53125 8.5 20.585938 8.5 20.6875 Z M 8.5 20.6875 " fill-opacity="1" fill-rule="nonzero"/><g clip-path="url(#f829b9ebfa)"><path fill="#bd6513" d="M 6.546875 16.878906 C 6.546875 16.921875 6.523438 16.945312 6.476562 16.945312 C 6.429688 16.945312 6.40625 16.921875 6.40625 16.878906 C 6.40625 16.835938 6.429688 16.816406 6.476562 16.816406 C 6.523438 16.816406 6.546875 16.835938 6.546875 16.878906 Z M 6.546875 16.878906 " fill-opacity="1" fill-rule="nonzero"/></g><path fill="#bd6513" d="M 13.480469 21.027344 C 13.480469 21.09375 13.441406 21.128906 13.371094 21.128906 C 13.296875 21.128906 13.261719 21.09375 13.261719 21.027344 C 13.261719 20.957031 13.296875 20.921875 13.371094 20.921875 C 13.441406 20.921875 13.480469 20.957031 13.480469 21.027344 Z M 13.480469 21.027344 " fill-opacity="1" fill-rule="nonzero"/><g clip-path="url(#9cabe2d8af)"><path fill="#bd6513" d="M 13.996094 23.179688 C 13.996094 23.246094 13.960938 23.28125 13.886719 23.28125 C 13.8125 23.28125 13.777344 23.246094 13.777344 23.179688 C 13.777344 23.109375 13.8125 23.078125 13.886719 23.078125 C 13.960938 23.078125 13.996094 23.109375 13.996094 23.179688 Z M 13.996094 23.179688 " fill-opacity="1" fill-rule="nonzero"/></g><g fill="#272525" fill-opacity="1"><g transform="translate(7.331481, 15.714774)"><g><path d="M 2.179688 -0.929688 C 1.945312 -0.0898438 1.988281 -0.0820312 1.644531 -0.0820312 L 0.800781 -0.0820312 L 0.800781 -2.875 L 1.191406 -3.007812 L 1.191406 -3.035156 L 0.140625 -3.035156 L 0.140625 -3.007812 L 0.53125 -2.875 L 0.535156 -0.175781 L 0.160156 -0.0273438 L 0.160156 0 L 2.207031 0 L 2.207031 -0.929688 Z M 2.179688 -0.929688 "/></g></g></g><g fill="#272525" fill-opacity="1"><g transform="translate(9.669592, 15.714774)"><g><path d="M 0.570312 -2.835938 C 0.683594 -2.835938 0.773438 -2.925781 0.773438 -3.042969 C 0.773438 -3.152344 0.683594 -3.246094 0.570312 -3.246094 C 0.453125 -3.246094 0.363281 -3.152344 0.363281 -3.042969 C 0.363281 -2.925781 0.453125 -2.835938 0.570312 -2.835938 Z M 0.464844 -0.136719 L 0.0585938 -0.0273438 L 0.0585938 0 L 1.121094 0 L 1.121094 -0.0273438 L 0.714844 -0.136719 L 0.714844 -2.347656 L 0.0585938 -2.347656 L 0.0585938 -2.320312 L 0.464844 -2.203125 Z M 0.464844 -0.136719 "/></g></g></g><g fill="#272525" fill-opacity="1"><g transform="translate(10.780194, 15.714774)"><g><path d="M 1.152344 -2.320312 C 1.578125 -2.1875 1.640625 -2.152344 1.371094 -1.410156 L 0.992188 -0.363281 L 0.96875 -0.363281 L 0.308594 -2.203125 L 0.710938 -2.320312 L 0.710938 -2.347656 L 0.0078125 -2.347656 L 0.0078125 -2.320312 L 0.882812 0.128906 L 0.898438 0.128906 L 1.792969 -2.320312 L 1.792969 -2.347656 L 1.152344 -2.347656 Z M 1.152344 -2.320312 "/></g></g></g><g fill="#272525" fill-opacity="1"><g transform="translate(12.583237, 15.714774)"><g><path d="M 1.6875 -0.324219 C 1.550781 -0.238281 1.433594 -0.152344 1.238281 -0.152344 C 0.683594 -0.152344 0.316406 -0.582031 0.316406 -1.320312 L 0.316406 -1.402344 L 1.359375 -1.402344 C 1.417969 -1.402344 1.671875 -1.578125 1.671875 -1.65625 C 1.671875 -2.101562 1.515625 -2.402344 1.03125 -2.402344 C 0.839844 -2.402344 0.0976562 -2.078125 0.0976562 -1.09375 C 0.0976562 -0.328125 0.542969 0.046875 1.082031 0.046875 C 1.214844 0.046875 1.445312 -0.09375 1.703125 -0.292969 Z M 0.953125 -2.207031 C 1.226562 -2.207031 1.46875 -2 1.429688 -1.484375 L 0.320312 -1.484375 C 0.375 -2.089844 0.710938 -2.207031 0.953125 -2.207031 Z M 0.953125 -2.207031 "/></g></g></g><g fill="#272525" fill-opacity="1"><g transform="translate(14.399769, 15.714774)"><g><path d="M 1.082031 -3.035156 L 0.140625 -3.035156 L 0.140625 -3.007812 L 0.511719 -2.859375 L 0.511719 -0.175781 L 0.140625 -0.0273438 L 0.140625 0 L 0.949219 0 C 2.179688 0 2.585938 -0.835938 2.585938 -1.554688 C 2.585938 -2.523438 2.019531 -3.035156 1.082031 -3.035156 Z M 0.777344 -0.0820312 L 0.777344 -2.953125 L 0.96875 -2.953125 C 1.898438 -2.953125 2.300781 -2.378906 2.300781 -1.519531 C 2.300781 -0.605469 1.902344 -0.0898438 0.925781 -0.0820312 Z M 0.777344 -0.0820312 "/></g></g></g><g fill="#272525" fill-opacity="1"><g transform="translate(17.147048, 15.714774)"><g><path d="M 1.652344 -0.183594 L 1.652344 -0.480469 L 1.683594 -1.757812 C 1.691406 -2.046875 1.566406 -2.410156 1.082031 -2.410156 C 0.886719 -2.410156 0.386719 -2.101562 0.113281 -1.328125 L 0.125 -1.316406 L 0.457031 -1.503906 C 0.4375 -1.90625 0.625 -2.210938 0.992188 -2.210938 C 1.378906 -2.210938 1.40625 -1.875 1.40625 -1.535156 L 1.109375 -1.332031 C 0.648438 -1.015625 0.195312 -0.664062 0.195312 -0.308594 C 0.195312 -0.109375 0.332031 0.0507812 0.632812 0.0507812 C 0.941406 0.0507812 1.136719 -0.101562 1.398438 -0.472656 C 1.484375 0.0117188 1.558594 0.03125 1.625 0.03125 C 1.761719 0.03125 1.996094 -0.296875 2.191406 -0.453125 L 2.175781 -0.476562 Z M 0.773438 -0.117188 C 0.613281 -0.117188 0.5 -0.234375 0.5 -0.425781 C 0.5 -0.738281 0.777344 -1.039062 1.40625 -1.425781 L 1.398438 -0.574219 C 1.167969 -0.257812 0.949219 -0.117188 0.773438 -0.117188 Z M 0.773438 -0.117188 "/></g></g></g><g fill="#272525" fill-opacity="1"><g transform="translate(19.26034, 15.714774)"><g><path d="M 1.265625 -0.328125 C 1.078125 -0.160156 0.992188 -0.136719 0.894531 -0.136719 C 0.707031 -0.136719 0.625 -0.230469 0.625 -0.417969 L 0.625 -2.261719 C 0.902344 -2.238281 1.179688 -2.199219 1.246094 -2.199219 L 1.246094 -2.347656 L 0.625 -2.347656 L 0.632812 -2.832031 L 0.617188 -2.832031 L 0.378906 -2.347656 L -0.00390625 -2.347656 L -0.00390625 -2.320312 L 0.375 -2.261719 L 0.375 -0.417969 C 0.375 -0.113281 0.515625 0.046875 0.742188 0.046875 C 0.824219 0.046875 1.09375 -0.117188 1.28125 -0.304688 Z M 1.265625 -0.328125 "/></g></g></g><g fill="#272525" fill-opacity="1"><g transform="translate(20.555293, 15.714774)"><g><path d="M 1.652344 -0.183594 L 1.652344 -0.480469 L 1.683594 -1.757812 C 1.691406 -2.046875 1.566406 -2.410156 1.082031 -2.410156 C 0.886719 -2.410156 0.386719 -2.101562 0.113281 -1.328125 L 0.125 -1.316406 L 0.457031 -1.503906 C 0.4375 -1.90625 0.625 -2.210938 0.992188 -2.210938 C 1.378906 -2.210938 1.40625 -1.875 1.40625 -1.535156 L 1.109375 -1.332031 C 0.648438 -1.015625 0.195312 -0.664062 0.195312 -0.308594 C 0.195312 -0.109375 0.332031 0.0507812 0.632812 0.0507812 C 0.941406 0.0507812 1.136719 -0.101562 1.398438 -0.472656 C 1.484375 0.0117188 1.558594 0.03125 1.625 0.03125 C 1.761719 0.03125 1.996094 -0.296875 2.191406 -0.453125 L 2.175781 -0.476562 Z M 0.773438 -0.117188 C 0.613281 -0.117188 0.5 -0.234375 0.5 -0.425781 C 0.5 -0.738281 0.777344 -1.039062 1.40625 -1.425781 L 1.398438 -0.574219 C 1.167969 -0.257812 0.949219 -0.117188 0.773438 -0.117188 Z M 0.773438 -0.117188 "/></g></g></g></svg>