<svg xmlns="http://www.w3.org/2000/svg" xmlns:xlink="http://www.w3.org/1999/xlink" width="40" zoomAndPan="magnify" viewBox="0 0 30 30.000001" height="40" preserveAspectRatio="xMidYMid meet" version="1.0"><defs><g/><clipPath id="46faf70908"><path d="M 0.484375 0 L 29.515625 0 L 29.515625 29.03125 L 0.484375 29.03125 Z M 0.484375 0 " clip-rule="nonzero"/></clipPath><clipPath id="2f41bef881"><path d="M 28 10 L 29.398438 10 L 29.398438 11 L 28 11 Z M 28 10 " clip-rule="nonzero"/></clipPath><clipPath id="caa46575db"><path d="M 0.484375 20 L 2 20 L 2 21 L 0.484375 21 Z M 0.484375 20 " clip-rule="nonzero"/></clipPath><clipPath id="51dae837d2"><path d="M 28 18 L 29.398438 18 L 29.398438 20 L 28 20 Z M 28 18 " clip-rule="nonzero"/></clipPath><clipPath id="58785c6f77"><path d="M 0.484375 18 L 1 18 L 1 19 L 0.484375 19 Z M 0.484375 18 " clip-rule="nonzero"/></clipPath><clipPath id="6699d58ad0"><path d="M 12 28 L 14 28 L 14 29.03125 L 12 29.03125 Z M 12 28 " clip-rule="nonzero"/></clipPath></defs><g clip-path="url(#46faf70908)"><path fill="#ffffff" d="M 0.484375 0 L 29.515625 0 L 29.515625 36.289062 L 0.484375 36.289062 Z M 0.484375 0 " fill-opacity="1" fill-rule="nonzero"/><path fill="#ffffff" d="M 0.484375 0 L 29.515625 0 L 29.515625 29.03125 L 0.484375 29.03125 Z M 0.484375 0 " fill-opacity="1" fill-rule="nonzero"/><path fill="#f4f4f4" d="M 0.484375 0 L 29.515625 0 L 29.515625 29.03125 L 0.484375 29.03125 Z M 0.484375 0 " fill-opacity="1" fill-rule="nonzero"/></g><path fill="#bd6513" d="M 16.074219 28.136719 C 13.511719 28.136719 11.164062 27.4375 9.023438 26.03125 C 6.277344 24.226562 4.421875 21.511719 3.796875 18.382812 L 4.015625 18.339844 C 5.277344 24.675781 11.6875 28.878906 18.304688 27.71875 C 23.027344 26.886719 26.796875 23.460938 27.902344 18.992188 L 28.117188 19.046875 C 27.574219 21.25 26.386719 23.246094 24.683594 24.820312 C 22.9375 26.4375 20.746094 27.515625 18.339844 27.9375 C 17.589844 28.070312 16.835938 28.136719 16.074219 28.136719 Z M 16.074219 28.136719 " fill-opacity="1" fill-rule="nonzero"/><path fill="#bd6513" d="M 27.632812 10.292969 C 25.898438 4.855469 20.242188 1.371094 14.171875 2 C 10.160156 2.417969 6.582031 4.621094 4.597656 7.894531 L 4.410156 7.78125 C 5.386719 6.167969 6.773438 4.769531 8.417969 3.734375 C 10.117188 2.667969 12.101562 1.992188 14.148438 1.78125 C 17.152344 1.46875 20.183594 2.15625 22.691406 3.71875 C 25.167969 5.265625 27 7.574219 27.84375 10.222656 Z M 27.632812 10.292969 " fill-opacity="1" fill-rule="nonzero"/><path fill="#bd6513" d="M 14.234375 27.949219 C 11.636719 27.953125 9.242188 27.253906 7.054688 25.847656 C 4.242188 24.039062 2.34375 21.308594 1.71875 18.160156 L 1.851562 18.132812 C 3.132812 24.5625 9.742188 28.8125 16.589844 27.609375 C 21.296875 26.78125 25.054688 23.582031 26.398438 19.261719 L 26.523438 19.300781 C 25.871094 21.398438 24.625 23.289062 22.914062 24.773438 C 21.15625 26.296875 18.976562 27.324219 16.613281 27.738281 C 15.828125 27.878906 15.035156 27.949219 14.234375 27.949219 Z M 14.234375 27.949219 " fill-opacity="1" fill-rule="nonzero"/><path fill="#bd6513" d="M 26.488281 12.21875 C 25.714844 5.777344 19.457031 1.125 12.535156 1.84375 C 8.277344 2.289062 4.585938 4.675781 2.652344 8.238281 L 2.539062 8.175781 C 4.492188 4.578125 8.222656 2.160156 12.519531 1.710938 C 15.910156 1.359375 19.238281 2.257812 21.902344 4.238281 C 24.566406 6.21875 26.242188 9.046875 26.621094 12.203125 Z M 26.488281 12.21875 " fill-opacity="1" fill-rule="nonzero"/><path fill="#bd6513" d="M 15.019531 27.765625 C 14.351562 27.765625 13.691406 27.714844 13.035156 27.617188 C 11.644531 27.414062 10.316406 26.996094 9.058594 26.371094 C 6.558594 25.125 4.546875 23.109375 3.394531 20.703125 L 3.515625 20.644531 C 5.910156 25.648438 11.601562 28.4375 17.355469 27.425781 C 21.300781 26.734375 24.695312 24.289062 26.429688 20.882812 L 26.546875 20.945312 C 25.664062 22.660156 24.441406 24.085938 22.886719 25.226562 C 21.289062 26.398438 19.386719 27.207031 17.378906 27.558594 C 16.597656 27.695312 15.8125 27.765625 15.019531 27.765625 Z M 15.019531 27.765625 " fill-opacity="1" fill-rule="nonzero"/><path fill="#bd6513" d="M 28.25 11.9375 C 28.234375 11.757812 28.21875 11.574219 28.195312 11.390625 C 27.421875 4.953125 21.164062 0.296875 14.242188 1.015625 C 8.929688 1.570312 4.546875 5.195312 3.339844 10.042969 L 3.210938 10.007812 C 3.800781 7.636719 5.144531 5.515625 7.09375 3.871094 C 9.085938 2.195312 11.550781 1.164062 14.230469 0.886719 C 17.617188 0.535156 20.945312 1.429688 23.613281 3.410156 C 26.277344 5.390625 27.949219 8.21875 28.328125 11.375 C 28.351562 11.558594 28.367188 11.742188 28.382812 11.925781 Z M 28.25 11.9375 " fill-opacity="1" fill-rule="nonzero"/><path fill="#bd6513" d="M 26.890625 11.355469 C 26.890625 11.457031 26.855469 11.542969 26.777344 11.613281 C 26.699219 11.6875 26.609375 11.722656 26.5 11.722656 C 26.390625 11.722656 26.300781 11.6875 26.222656 11.613281 C 26.144531 11.542969 26.109375 11.457031 26.109375 11.355469 C 26.109375 11.257812 26.144531 11.167969 26.222656 11.097656 C 26.300781 11.027344 26.390625 10.992188 26.5 10.992188 C 26.609375 10.992188 26.699219 11.027344 26.777344 11.097656 C 26.855469 11.167969 26.890625 11.257812 26.890625 11.355469 Z M 26.890625 11.355469 " fill-opacity="1" fill-rule="nonzero"/><path fill="#bd6513" d="M 24.109375 4.527344 C 24.109375 4.625 24.074219 4.710938 23.996094 4.785156 C 23.917969 4.855469 23.828125 4.890625 23.71875 4.890625 C 23.609375 4.890625 23.519531 4.855469 23.441406 4.785156 C 23.363281 4.710938 23.328125 4.625 23.328125 4.527344 C 23.328125 4.425781 23.363281 4.339844 23.441406 4.265625 C 23.519531 4.195312 23.609375 4.160156 23.71875 4.160156 C 23.828125 4.160156 23.917969 4.195312 23.996094 4.265625 C 24.074219 4.339844 24.109375 4.425781 24.109375 4.527344 Z M 24.109375 4.527344 " fill-opacity="1" fill-rule="nonzero"/><path fill="#bd6513" d="M 16.109375 1.761719 C 16.109375 1.859375 16.070312 1.945312 15.996094 2.019531 C 15.917969 2.089844 15.824219 2.125 15.71875 2.125 C 15.609375 2.125 15.515625 2.089844 15.441406 2.019531 C 15.363281 1.945312 15.324219 1.859375 15.324219 1.761719 C 15.324219 1.660156 15.363281 1.574219 15.441406 1.5 C 15.515625 1.429688 15.609375 1.394531 15.71875 1.394531 C 15.824219 1.394531 15.917969 1.429688 15.996094 1.5 C 16.070312 1.574219 16.109375 1.660156 16.109375 1.761719 Z M 16.109375 1.761719 " fill-opacity="1" fill-rule="nonzero"/><path fill="#bd6513" d="M 6.0625 4.578125 C 6.0625 4.679688 6.023438 4.765625 5.945312 4.835938 C 5.871094 4.90625 5.777344 4.945312 5.667969 4.945312 C 5.5625 4.945312 5.46875 4.90625 5.390625 4.835938 C 5.316406 4.765625 5.277344 4.679688 5.277344 4.578125 C 5.277344 4.476562 5.316406 4.390625 5.390625 4.320312 C 5.46875 4.25 5.5625 4.214844 5.667969 4.214844 C 5.777344 4.214844 5.871094 4.25 5.945312 4.320312 C 6.023438 4.390625 6.0625 4.476562 6.0625 4.578125 Z M 6.0625 4.578125 " fill-opacity="1" fill-rule="nonzero"/><path fill="#bd6513" d="M 11.378906 0.367188 C 11.378906 0.464844 11.339844 0.550781 11.261719 0.625 C 11.1875 0.695312 11.09375 0.730469 10.984375 0.730469 C 10.875 0.730469 10.785156 0.695312 10.707031 0.625 C 10.632812 0.550781 10.59375 0.464844 10.59375 0.367188 C 10.59375 0.265625 10.632812 0.179688 10.707031 0.105469 C 10.785156 0.0351562 10.875 0 10.984375 0 C 11.09375 0 11.1875 0.0351562 11.261719 0.105469 C 11.339844 0.179688 11.378906 0.265625 11.378906 0.367188 Z M 11.378906 0.367188 " fill-opacity="1" fill-rule="nonzero"/><path fill="#bd6513" d="M 2.320312 9.28125 C 2.320312 9.429688 2.242188 9.5 2.085938 9.5 C 1.925781 9.5 1.847656 9.429688 1.847656 9.28125 C 1.847656 9.136719 1.925781 9.0625 2.085938 9.0625 C 2.242188 9.0625 2.320312 9.136719 2.320312 9.28125 Z M 2.320312 9.28125 " fill-opacity="1" fill-rule="nonzero"/><path fill="#bd6513" d="M 1.910156 7.589844 C 1.910156 7.695312 1.855469 7.746094 1.746094 7.746094 C 1.632812 7.746094 1.578125 7.695312 1.578125 7.589844 C 1.578125 7.488281 1.632812 7.4375 1.746094 7.4375 C 1.855469 7.4375 1.910156 7.488281 1.910156 7.589844 Z M 1.910156 7.589844 " fill-opacity="1" fill-rule="nonzero"/><path fill="#bd6513" d="M 3.277344 4.566406 C 3.277344 4.613281 3.253906 4.636719 3.203125 4.636719 C 3.152344 4.636719 3.125 4.613281 3.125 4.566406 C 3.125 4.515625 3.152344 4.492188 3.203125 4.492188 C 3.253906 4.492188 3.277344 4.515625 3.277344 4.566406 Z M 3.277344 4.566406 " fill-opacity="1" fill-rule="nonzero"/><path fill="#bd6513" d="M 8.066406 1.070312 C 8.066406 1.171875 8.011719 1.222656 7.902344 1.222656 C 7.796875 1.222656 7.742188 1.171875 7.742188 1.070312 C 7.742188 0.972656 7.796875 0.921875 7.902344 0.921875 C 8.011719 0.921875 8.066406 0.972656 8.066406 1.070312 Z M 8.066406 1.070312 " fill-opacity="1" fill-rule="nonzero"/><path fill="#bd6513" d="M 23.382812 1.753906 C 23.382812 1.898438 23.304688 1.96875 23.152344 1.96875 C 23 1.96875 22.921875 1.898438 22.921875 1.753906 C 22.921875 1.613281 23 1.542969 23.152344 1.542969 C 23.304688 1.542969 23.382812 1.613281 23.382812 1.753906 Z M 23.382812 1.753906 " fill-opacity="1" fill-rule="nonzero"/><path fill="#bd6513" d="M 11.632812 4.042969 C 11.632812 4.109375 11.605469 4.171875 11.550781 4.21875 C 11.5 4.269531 11.433594 4.292969 11.359375 4.292969 C 11.285156 4.292969 11.21875 4.269531 11.167969 4.21875 C 11.113281 4.171875 11.085938 4.109375 11.085938 4.042969 C 11.085938 3.972656 11.113281 3.910156 11.167969 3.863281 C 11.21875 3.8125 11.285156 3.789062 11.359375 3.789062 C 11.433594 3.789062 11.5 3.8125 11.550781 3.863281 C 11.605469 3.910156 11.632812 3.972656 11.632812 4.042969 Z M 11.632812 4.042969 " fill-opacity="1" fill-rule="nonzero"/><path fill="#bd6513" d="M 27.640625 5.445312 C 27.640625 5.515625 27.613281 5.578125 27.558594 5.628906 C 27.503906 5.679688 27.4375 5.703125 27.363281 5.703125 C 27.285156 5.703125 27.21875 5.679688 27.167969 5.628906 C 27.113281 5.578125 27.085938 5.515625 27.085938 5.445312 C 27.085938 5.375 27.113281 5.3125 27.167969 5.261719 C 27.21875 5.214844 27.285156 5.1875 27.363281 5.1875 C 27.4375 5.1875 27.503906 5.214844 27.558594 5.261719 C 27.613281 5.3125 27.640625 5.375 27.640625 5.445312 Z M 27.640625 5.445312 " fill-opacity="1" fill-rule="nonzero"/><g clip-path="url(#2f41bef881)"><path fill="#bd6513" d="M 29.148438 10.347656 C 29.148438 10.417969 29.113281 10.453125 29.035156 10.453125 C 28.957031 10.453125 28.921875 10.417969 28.921875 10.347656 C 28.921875 10.277344 28.957031 10.242188 29.035156 10.242188 C 29.113281 10.242188 29.148438 10.277344 29.148438 10.347656 Z M 29.148438 10.347656 " fill-opacity="1" fill-rule="nonzero"/></g><path fill="#bd6513" d="M 19.167969 4.871094 C 19.167969 4.984375 19.105469 5.039062 18.984375 5.039062 C 18.863281 5.039062 18.804688 4.984375 18.804688 4.871094 C 18.804688 4.757812 18.863281 4.699219 18.984375 4.699219 C 19.105469 4.699219 19.167969 4.757812 19.167969 4.871094 Z M 19.167969 4.871094 " fill-opacity="1" fill-rule="nonzero"/><path fill="#bd6513" d="M 18.632812 0.707031 C 18.632812 0.820312 18.574219 0.878906 18.453125 0.878906 C 18.328125 0.878906 18.269531 0.820312 18.269531 0.707031 C 18.269531 0.59375 18.328125 0.539062 18.453125 0.539062 C 18.574219 0.539062 18.632812 0.59375 18.632812 0.707031 Z M 18.632812 0.707031 " fill-opacity="1" fill-rule="nonzero"/><g clip-path="url(#caa46575db)"><path fill="#bd6513" d="M 1.152344 20.621094 C 1.152344 20.722656 1.113281 20.808594 1.035156 20.882812 C 0.957031 20.953125 0.867188 20.988281 0.757812 20.988281 C 0.648438 20.988281 0.558594 20.953125 0.480469 20.882812 C 0.40625 20.808594 0.367188 20.722656 0.367188 20.621094 C 0.367188 20.519531 0.40625 20.433594 0.480469 20.359375 C 0.558594 20.289062 0.648438 20.253906 0.757812 20.253906 C 0.867188 20.253906 0.957031 20.289062 1.035156 20.359375 C 1.113281 20.433594 1.152344 20.519531 1.152344 20.621094 Z M 1.152344 20.621094 " fill-opacity="1" fill-rule="nonzero"/></g><path fill="#bd6513" d="M 7.953125 25.386719 C 7.953125 25.488281 7.914062 25.574219 7.835938 25.644531 C 7.761719 25.71875 7.667969 25.753906 7.558594 25.753906 C 7.449219 25.753906 7.359375 25.71875 7.28125 25.644531 C 7.207031 25.574219 7.167969 25.488281 7.167969 25.386719 C 7.167969 25.285156 7.207031 25.195312 7.28125 25.125 C 7.359375 25.054688 7.449219 25.015625 7.558594 25.015625 C 7.667969 25.015625 7.761719 25.054688 7.835938 25.125 C 7.914062 25.195312 7.953125 25.285156 7.953125 25.386719 Z M 7.953125 25.386719 " fill-opacity="1" fill-rule="nonzero"/><path fill="#bd6513" d="M 15.363281 26.878906 C 15.363281 26.980469 15.324219 27.066406 15.25 27.136719 C 15.171875 27.210938 15.078125 27.246094 14.972656 27.246094 C 14.863281 27.246094 14.769531 27.210938 14.695312 27.136719 C 14.617188 27.066406 14.578125 26.980469 14.578125 26.878906 C 14.578125 26.777344 14.617188 26.6875 14.695312 26.617188 C 14.769531 26.542969 14.863281 26.507812 14.972656 26.507812 C 15.078125 26.507812 15.171875 26.542969 15.25 26.617188 C 15.324219 26.6875 15.363281 26.777344 15.363281 26.878906 Z M 15.363281 26.878906 " fill-opacity="1" fill-rule="nonzero"/><path fill="#bd6513" d="M 25.949219 23.851562 C 25.949219 23.953125 25.910156 24.042969 25.832031 24.113281 C 25.757812 24.1875 25.664062 24.222656 25.554688 24.222656 C 25.449219 24.222656 25.355469 24.1875 25.277344 24.113281 C 25.203125 24.042969 25.164062 23.953125 25.164062 23.851562 C 25.164062 23.75 25.203125 23.664062 25.277344 23.59375 C 25.355469 23.519531 25.449219 23.484375 25.554688 23.484375 C 25.664062 23.484375 25.757812 23.519531 25.832031 23.59375 C 25.910156 23.664062 25.949219 23.75 25.949219 23.851562 Z M 25.949219 23.851562 " fill-opacity="1" fill-rule="nonzero"/><path fill="#bd6513" d="M 20.980469 28.320312 C 20.980469 28.421875 20.941406 28.511719 20.863281 28.582031 C 20.789062 28.652344 20.695312 28.691406 20.589844 28.691406 C 20.480469 28.691406 20.386719 28.652344 20.3125 28.582031 C 20.234375 28.511719 20.195312 28.421875 20.195312 28.320312 C 20.195312 28.21875 20.234375 28.132812 20.3125 28.0625 C 20.386719 27.988281 20.480469 27.953125 20.589844 27.953125 C 20.695312 27.953125 20.789062 27.988281 20.863281 28.0625 C 20.941406 28.132812 20.980469 28.21875 20.980469 28.320312 Z M 20.980469 28.320312 " fill-opacity="1" fill-rule="nonzero"/><g clip-path="url(#51dae837d2)"><path fill="#bd6513" d="M 29.398438 18.878906 C 29.398438 19.027344 29.320312 19.101562 29.160156 19.101562 C 29.003906 19.101562 28.925781 19.027344 28.925781 18.878906 C 28.925781 18.730469 29.003906 18.65625 29.160156 18.65625 C 29.320312 18.65625 29.398438 18.730469 29.398438 18.878906 Z M 29.398438 18.878906 " fill-opacity="1" fill-rule="nonzero"/></g><path fill="#bd6513" d="M 28.996094 21.417969 C 28.996094 21.523438 28.9375 21.574219 28.828125 21.574219 C 28.714844 21.574219 28.660156 21.523438 28.660156 21.417969 C 28.660156 21.316406 28.714844 21.261719 28.828125 21.261719 C 28.9375 21.261719 28.996094 21.316406 28.996094 21.417969 Z M 28.996094 21.417969 " fill-opacity="1" fill-rule="nonzero"/><path fill="#bd6513" d="M 28.09375 23.925781 C 28.09375 23.972656 28.066406 23.996094 28.015625 23.996094 C 27.964844 23.996094 27.941406 23.972656 27.941406 23.925781 C 27.941406 23.878906 27.964844 23.855469 28.015625 23.855469 C 28.066406 23.855469 28.09375 23.878906 28.09375 23.925781 Z M 28.09375 23.925781 " fill-opacity="1" fill-rule="nonzero"/><path fill="#bd6513" d="M 23.765625 27.765625 C 23.765625 27.867188 23.714844 27.917969 23.605469 27.917969 C 23.496094 27.917969 23.445312 27.867188 23.445312 27.765625 C 23.445312 27.664062 23.496094 27.613281 23.605469 27.613281 C 23.714844 27.613281 23.765625 27.664062 23.765625 27.765625 Z M 23.765625 27.765625 " fill-opacity="1" fill-rule="nonzero"/><path fill="#bd6513" d="M 8.574219 28.132812 C 8.574219 28.277344 8.496094 28.347656 8.34375 28.347656 C 8.191406 28.347656 8.113281 28.277344 8.113281 28.132812 C 8.113281 27.992188 8.191406 27.917969 8.34375 27.917969 C 8.496094 27.917969 8.574219 27.992188 8.574219 28.132812 Z M 8.574219 28.132812 " fill-opacity="1" fill-rule="nonzero"/><path fill="#bd6513" d="M 20.195312 25.015625 C 20.195312 25.085938 20.167969 25.148438 20.117188 25.199219 C 20.0625 25.246094 20 25.273438 19.921875 25.273438 C 19.847656 25.273438 19.785156 25.246094 19.730469 25.199219 C 19.675781 25.148438 19.652344 25.085938 19.652344 25.015625 C 19.652344 24.945312 19.675781 24.886719 19.730469 24.835938 C 19.785156 24.785156 19.847656 24.761719 19.921875 24.761719 C 20 24.761719 20.0625 24.785156 20.117188 24.835938 C 20.167969 24.886719 20.195312 24.945312 20.195312 25.015625 Z M 20.195312 25.015625 " fill-opacity="1" fill-rule="nonzero"/><path fill="#bd6513" d="M 4.128906 24.710938 C 4.128906 24.78125 4.101562 24.84375 4.046875 24.894531 C 3.996094 24.945312 3.929688 24.972656 3.851562 24.972656 C 3.777344 24.972656 3.710938 24.945312 3.65625 24.894531 C 3.601562 24.84375 3.574219 24.78125 3.574219 24.710938 C 3.574219 24.640625 3.601562 24.578125 3.65625 24.527344 C 3.710938 24.476562 3.777344 24.449219 3.851562 24.449219 C 3.929688 24.449219 3.996094 24.476562 4.046875 24.527344 C 4.101562 24.578125 4.128906 24.640625 4.128906 24.710938 Z M 4.128906 24.710938 " fill-opacity="1" fill-rule="nonzero"/><g clip-path="url(#58785c6f77)"><path fill="#bd6513" d="M 0.875 18.363281 C 0.875 18.433594 0.835938 18.46875 0.757812 18.46875 C 0.683594 18.46875 0.644531 18.433594 0.644531 18.363281 C 0.644531 18.289062 0.683594 18.253906 0.757812 18.253906 C 0.835938 18.253906 0.875 18.289062 0.875 18.363281 Z M 0.875 18.363281 " fill-opacity="1" fill-rule="nonzero"/></g><path fill="#bd6513" d="M 12.433594 25.273438 C 12.433594 25.386719 12.375 25.445312 12.253906 25.445312 C 12.132812 25.445312 12.070312 25.386719 12.070312 25.273438 C 12.070312 25.160156 12.132812 25.101562 12.253906 25.101562 C 12.375 25.101562 12.433594 25.160156 12.433594 25.273438 Z M 12.433594 25.273438 " fill-opacity="1" fill-rule="nonzero"/><g clip-path="url(#6699d58ad0)"><path fill="#bd6513" d="M 13.296875 28.859375 C 13.296875 28.976562 13.234375 29.03125 13.113281 29.03125 C 12.992188 29.03125 12.933594 28.976562 12.933594 28.859375 C 12.933594 28.746094 12.992188 28.691406 13.113281 28.691406 C 13.234375 28.691406 13.296875 28.746094 13.296875 28.859375 Z M 13.296875 28.859375 " fill-opacity="1" fill-rule="nonzero"/></g><g fill="#272525" fill-opacity="1"><g transform="translate(7.331481, 15.714774)"><g><path d="M 2.179688 -0.929688 C 1.945312 -0.0898438 1.988281 -0.0820312 1.644531 -0.0820312 L 0.800781 -0.0820312 L 0.800781 -2.875 L 1.191406 -3.007812 L 1.191406 -3.035156 L 0.140625 -3.035156 L 0.140625 -3.007812 L 0.53125 -2.875 L 0.535156 -0.175781 L 0.160156 -0.0273438 L 0.160156 0 L 2.207031 0 L 2.207031 -0.929688 Z M 2.179688 -0.929688 "/></g></g></g><g fill="#272525" fill-opacity="1"><g transform="translate(9.669592, 15.714774)"><g><path d="M 0.570312 -2.835938 C 0.683594 -2.835938 0.773438 -2.925781 0.773438 -3.042969 C 0.773438 -3.152344 0.683594 -3.246094 0.570312 -3.246094 C 0.453125 -3.246094 0.363281 -3.152344 0.363281 -3.042969 C 0.363281 -2.925781 0.453125 -2.835938 0.570312 -2.835938 Z M 0.464844 -0.136719 L 0.0585938 -0.0273438 L 0.0585938 0 L 1.121094 0 L 1.121094 -0.0273438 L 0.714844 -0.136719 L 0.714844 -2.347656 L 0.0585938 -2.347656 L 0.0585938 -2.320312 L 0.464844 -2.203125 Z M 0.464844 -0.136719 "/></g></g></g><g fill="#272525" fill-opacity="1"><g transform="translate(10.780194, 15.714774)"><g><path d="M 1.152344 -2.320312 C 1.578125 -2.1875 1.640625 -2.152344 1.371094 -1.410156 L 0.992188 -0.363281 L 0.96875 -0.363281 L 0.308594 -2.203125 L 0.710938 -2.320312 L 0.710938 -2.347656 L 0.0078125 -2.347656 L 0.0078125 -2.320312 L 0.882812 0.128906 L 0.898438 0.128906 L 1.792969 -2.320312 L 1.792969 -2.347656 L 1.152344 -2.347656 Z M 1.152344 -2.320312 "/></g></g></g><g fill="#272525" fill-opacity="1"><g transform="translate(12.583237, 15.714774)"><g><path d="M 1.6875 -0.324219 C 1.550781 -0.238281 1.433594 -0.152344 1.238281 -0.152344 C 0.683594 -0.152344 0.316406 -0.582031 0.316406 -1.320312 L 0.316406 -1.402344 L 1.359375 -1.402344 C 1.417969 -1.402344 1.671875 -1.578125 1.671875 -1.65625 C 1.671875 -2.101562 1.515625 -2.402344 1.03125 -2.402344 C 0.839844 -2.402344 0.0976562 -2.078125 0.0976562 -1.09375 C 0.0976562 -0.328125 0.542969 0.046875 1.082031 0.046875 C 1.214844 0.046875 1.445312 -0.09375 1.703125 -0.292969 Z M 0.953125 -2.207031 C 1.226562 -2.207031 1.46875 -2 1.429688 -1.484375 L 0.320312 -1.484375 C 0.375 -2.089844 0.710938 -2.207031 0.953125 -2.207031 Z M 0.953125 -2.207031 "/></g></g></g><g fill="#272525" fill-opacity="1"><g transform="translate(14.399769, 15.714774)"><g><path d="M 1.082031 -3.035156 L 0.140625 -3.035156 L 0.140625 -3.007812 L 0.511719 -2.859375 L 0.511719 -0.175781 L 0.140625 -0.0273438 L 0.140625 0 L 0.949219 0 C 2.179688 0 2.585938 -0.835938 2.585938 -1.554688 C 2.585938 -2.523438 2.019531 -3.035156 1.082031 -3.035156 Z M 0.777344 -0.0820312 L 0.777344 -2.953125 L 0.96875 -2.953125 C 1.898438 -2.953125 2.300781 -2.378906 2.300781 -1.519531 C 2.300781 -0.605469 1.902344 -0.0898438 0.925781 -0.0820312 Z M 0.777344 -0.0820312 "/></g></g></g><g fill="#272525" fill-opacity="1"><g transform="translate(17.147048, 15.714774)"><g><path d="M 1.652344 -0.183594 L 1.652344 -0.480469 L 1.683594 -1.757812 C 1.691406 -2.046875 1.566406 -2.410156 1.082031 -2.410156 C 0.886719 -2.410156 0.386719 -2.101562 0.113281 -1.328125 L 0.125 -1.316406 L 0.457031 -1.503906 C 0.4375 -1.90625 0.625 -2.210938 0.992188 -2.210938 C 1.378906 -2.210938 1.40625 -1.875 1.40625 -1.535156 L 1.109375 -1.332031 C 0.648438 -1.015625 0.195312 -0.664062 0.195312 -0.308594 C 0.195312 -0.109375 0.332031 0.0507812 0.632812 0.0507812 C 0.941406 0.0507812 1.136719 -0.101562 1.398438 -0.472656 C 1.484375 0.0117188 1.558594 0.03125 1.625 0.03125 C 1.761719 0.03125 1.996094 -0.296875 2.191406 -0.453125 L 2.175781 -0.476562 Z M 0.773438 -0.117188 C 0.613281 -0.117188 0.5 -0.234375 0.5 -0.425781 C 0.5 -0.738281 0.777344 -1.039062 1.40625 -1.425781 L 1.398438 -0.574219 C 1.167969 -0.257812 0.949219 -0.117188 0.773438 -0.117188 Z M 0.773438 -0.117188 "/></g></g></g><g fill="#272525" fill-opacity="1"><g transform="translate(19.26034, 15.714774)"><g><path d="M 1.265625 -0.328125 C 1.078125 -0.160156 0.992188 -0.136719 0.894531 -0.136719 C 0.707031 -0.136719 0.625 -0.230469 0.625 -0.417969 L 0.625 -2.261719 C 0.902344 -2.238281 1.179688 -2.199219 1.246094 -2.199219 L 1.246094 -2.347656 L 0.625 -2.347656 L 0.632812 -2.832031 L 0.617188 -2.832031 L 0.378906 -2.347656 L -0.00390625 -2.347656 L -0.00390625 -2.320312 L 0.375 -2.261719 L 0.375 -0.417969 C 0.375 -0.113281 0.515625 0.046875 0.742188 0.046875 C 0.824219 0.046875 1.09375 -0.117188 1.28125 -0.304688 Z M 1.265625 -0.328125 "/></g></g></g><g fill="#272525" fill-opacity="1"><g transform="translate(20.555293, 15.714774)"><g><path d="M 1.652344 -0.183594 L 1.652344 -0.480469 L 1.683594 -1.757812 C 1.691406 -2.046875 1.566406 -2.410156 1.082031 -2.410156 C 0.886719 -2.410156 0.386719 -2.101562 0.113281 -1.328125 L 0.125 -1.316406 L 0.457031 -1.503906 C 0.4375 -1.90625 0.625 -2.210938 0.992188 -2.210938 C 1.378906 -2.210938 1.40625 -1.875 1.40625 -1.535156 L 1.109375 -1.332031 C 0.648438 -1.015625 0.195312 -0.664062 0.195312 -0.308594 C 0.195312 -0.109375 0.332031 0.0507812 0.632812 0.0507812 C 0.941406 0.0507812 1.136719 -0.101562 1.398438 -0.472656 C 1.484375 0.0117188 1.558594 0.03125 1.625 0.03125 C 1.761719 0.03125 1.996094 -0.296875 2.191406 -0.453125 L 2.175781 -0.476562 Z M 0.773438 -0.117188 C 0.613281 -0.117188 0.5 -0.234375 0.5 -0.425781 C 0.5 -0.738281 0.777344 -1.039062 1.40625 -1.425781 L 1.398438 -0.574219 C 1.167969 -0.257812 0.949219 -0.117188 0.773438 -0.117188 Z M 0.773438 -0.117188 "/></g></g></g></svg>